# xmcd CD database file
#
# Track frame offsets:
#	150
#	15890
#	28662
#	42786
#	59919
#	81983
#	95954
#	114744
#	133689
#	145362
#	158720
#	170685
#	186856
#
# Disc length: 2747 seconds
#
# Revision: 0
# Processed by: cddbd v1.5.1PL0 Copyright (c) Steve Scherf et al.
# Submitted via: CDex 1.51
#
DISCID=b90ab90d
DTITLE=Michael Hoppé - Simple Pleasures
DYEAR=1994
DGENRE=New Age
TTITLE0=The Children's Waltz
TTITLE1=Lincoln's Lament
TTITLE2=Silver Screen Romance
TTITLE3=Roses on Toast
TTITLE4=Moonlight Bossa
TTITLE5=October
TTITLE6=Circus Dream
TTITLE7=See You In My Dreams
TTITLE8=Magda's Waltz
TTITLE9=Through the Window
TTITLE10=Homeland Theme
TTITLE11=The Parting
TTITLE12=Elegy
EXTD=YEAR: 1994
EXTT0=
EXTT1=
EXTT2=
EXTT3=
EXTT4=
EXTT5=
EXTT6=
EXTT7=
EXTT8=
EXTT9=
EXTT10=
EXTT11=
EXTT12=
PLAYORDER=
